<?xml version="1.0" encoding="UTF-8"?>
<svg width="91px" height="99px" viewBox="0 0 91 99" version="1.1" xmlns="http://www.w3.org/2000/svg" xmlns:xlink="http://www.w3.org/1999/xlink">
    <!-- Generator: Sketch 57.1 (83088) - https://sketch.com -->
    <title>编组 2</title>
    <desc>Created with Sketch.</desc>
    <g id="页面-1" stroke="none" stroke-width="1" fill="none" fill-rule="evenodd">
        <g id="A4" transform="translate(-252.000000, -361.000000)">
            <g id="编组-2" transform="translate(247.000000, 360.000000)">
                <path d="M57.5,4.04145188 L87.2342829,21.2085481 C91.565898,23.7094072 94.2342829,28.3311855 94.2342829,33.3329038 L94.2342829,67.6670962 C94.2342829,72.6688145 91.565898,77.2905928 87.2342829,79.7914519 L57.5,96.9585481 C53.1683849,99.4594072 47.8316151,99.4594072 43.5,96.9585481 L13.7657171,79.7914519 C9.43410203,77.2905928 6.76571711,72.6688145 6.76571711,67.6670962 L6.76571711,33.3329038 C6.76571711,28.3311855 9.43410203,23.7094072 13.7657171,21.2085481 L43.5,4.04145188 C47.8316151,1.54059275 53.1683849,1.54059275 57.5,4.04145188 Z" id="多边形" stroke="#5093FF" stroke-width="2" fill="#F3F3F3"></path>
                <path d="M57,16.0414519 L76.7749907,27.4585481 C81.1066058,29.9594072 83.7749907,34.5811855 83.7749907,39.5829038 L83.7749907,62.4170962 C83.7749907,67.4188145 81.1066058,72.0405928 76.7749907,74.5414519 L57,85.9585481 C52.6683849,88.4594072 47.3316151,88.4594072 43,85.9585481 L23.2250093,74.5414519 C18.8933942,72.0405928 16.2250093,67.4188145 16.2250093,62.4170962 L16.2250093,39.5829038 C16.2250093,34.5811855 18.8933942,29.9594072 23.2250093,27.4585481 L43,16.0414519 C47.3316151,13.5405928 52.6683849,13.5405928 57,16.0414519 Z" id="多边形备份" stroke="#ECECEC" fill="#FFFFFF"></path>
                <g id="编组" transform="translate(20.000000, 30.000000)">
                    <path d="M28.4982102,0 C33.3336635,0 37.7308465,1.84671522 41.0012993,4.86259843 C35.5551486,9.77810911 31.9551019,13.4071589 30.1995959,15.7494816 C27.3159409,19.5970619 25.9370695,23.5121785 25.9370695,27.3243354 C25.9370695,29.7262853 26.6996419,32.6177448 28.2247867,35.9987139 L11.059007,35.9999776 C4.91367231,35.7724047 0,30.7997612 0,24.697659 C0,18.6792538 4.77980411,13.7595362 10.8072743,13.4146575 C12.8669155,5.69489552 20.0067944,0 28.4982102,0 Z" id="形状结合" fill="#37D4FF"></path>
                    <path d="M28.4982102,0 C33.3336635,0 37.7308465,1.84671522 41.0012993,4.86259843 C35.5551486,9.77810911 31.9551019,13.4071589 30.1995959,15.7494816 C27.3159409,19.5970619 25.9370695,23.5121785 25.9370695,27.3243354 C25.9370695,29.7262853 26.6996419,32.6177448 28.2247867,35.9987139 L11.059007,35.9999776 C4.91367231,35.7724047 0,30.7997612 0,24.697659 C0,18.6792538 4.77980411,13.7595362 10.8072743,13.4146575 C12.8669155,5.69489552 20.0067944,0 28.4982102,0 Z" id="形状结合备份" fill="#37D1FF"></path>
                    <path d="M44.3046046,8.06717148 C38.9108372,13.0900231 35.5615878,16.6282969 34.2568565,18.6819931 C32.2997594,21.7625373 32,24.4595045 32,26.4608171 C32,28.4621297 32.5739761,30.8065389 33.6711366,32.6963063 C34.4025769,33.9561513 35.1381275,35.0573825 35.8777885,36 C40.2386512,36 43.6784511,36 46.197188,36 C49.9752935,36 54.9909822,33.5205452 57.7007975,29.5438209 C60.4106129,25.5670965 60.4106129,20.5417679 59.3097623,16.755235 C58.2089117,12.9687021 55.0423378,10.3372024 51.8583154,9.03665994 C49.7356339,8.16963164 47.2177303,7.84646882 44.3046046,8.06717148 Z" id="路径-2" fill="#259FFE"></path>
                </g>
                <path d="M30.7981945,43.3953405 C31.6106634,39.5649347 33.8407103,36.3011107 37.4883353,33.6038684 C42.9597728,29.5580049 49.0234858,29.1704372 53.805472,30.7226057 C56.9934628,31.7573848 59.4293185,33.1382188 61.1130392,34.8651078 C56.0880625,39.3343543 52.4562439,43.1436333 50.2175836,46.2929446 C47.9789232,49.4422559 46.6099984,52.3368258 46.1108093,54.9766541 L30.7981945,43.3953405 Z" id="路径" fill="#4181FF"></path>
            </g>
        </g>
    </g>
</svg>